<svg width="21" height="21" viewBox="0 0 21 21" fill="none" xmlns="http://www.w3.org/2000/svg">
<path d="M20.6212 7.33594L19.0587 5.8125C18.7072 5.42188 18.0822 5.42188 17.7306 5.8125L8.39465 15.1484L4.01965 10.8125C3.66809 10.4219 3.08215 10.4219 2.69153 10.8125L1.16809 12.3359C0.777466 12.7266 0.777466 13.3125 1.16809 13.6641L7.73059 20.2266C8.08215 20.6172 8.66809 20.6172 9.01965 20.2266L20.5822 8.66406C20.9728 8.3125 20.9728 7.72656 20.6212 7.33594ZM7.9259 11.4766C8.16028 11.75 8.58997 11.75 8.82434 11.4766L16.9493 3.35156C17.1837 3.11719 17.1837 2.72656 16.9493 2.45312L15.1915 0.695312C14.9181 0.460938 14.5275 0.460938 14.2931 0.695312L8.39465 6.63281L6.20715 4.44531C5.97278 4.21094 5.58215 4.21094 5.34778 4.44531L3.5509 6.20312C3.31653 6.47656 3.31653 6.86719 3.5509 7.10156L7.9259 11.4766Z" fill="#ED7839"/>
</svg>
